<svg xmlns="http://www.w3.org/2000/svg" width="64" height="64"><radialGradient id="a" cx="242.813" cy="287.333" r="206.704" gradientUnits="userSpaceOnUse" spreadMethod="reflect"><stop offset="0" stop-color="#efdcb1"/><stop offset="0" stop-color="#f2e0bb"/><stop offset=".011" stop-color="#f2e0bc"/><stop offset=".362" stop-color="#f9edd2"/><stop offset=".699" stop-color="#fef4df"/><stop offset="1" stop-color="#fff7e4"/></radialGradient><path fill="url(#a)" d="M6 4a4 4 0 0 1 8 0 4 4 0 0 1-8 0zm1.5 60a3.5 3.5 0 1 0 0-7 3.5 3.5 0 1 0 0 7zm50-39h-10a3.5 3.5 0 1 0 0 7H49a4 4 0 0 1 0 8h-.5a2.5 2.5 0 1 0 0 5H54a4 4 0 0 1 0 8h-8a2 2 0 1 0 0 4h.5a3.5 3.5 0 1 1 0 7h-29a3.5 3.5 0 1 1 0-7 2.5 2.5 0 1 0 0-5H9a4 4 0 0 1 0-8h4.5a3.5 3.5 0 1 0 0-7H5a5 5 0 0 1 0-10h3a3 3 0 1 0 0-6H5.5a3.5 3.5 0 1 1 0-7H24a3 3 0 1 0 0-6h-2a4 4 0 0 1 0-8h24a4 4 0 0 1 0 8h-2a4 4 0 0 0 0 8h13.5a4.5 4.5 0 0 1 0 9zM63 36a4 4 0 0 0-8 0 4 4 0 0 0 8 0z"/><linearGradient id="b" x1="31.5" x2="31.5" y1="6" y2="57.004" gradientUnits="userSpaceOnUse" spreadMethod="reflect"><stop offset="0" stop-color="#a4a4a4"/><stop offset=".63" stop-color="#7f7f7f"/><stop offset="1" stop-color="#6f6f6f"/><stop offset="1" stop-color="#6f6f6f"/></linearGradient><path fill="url(#b)" d="m55.846 49.998.006-.006-12.231-12.231A20.39 20.39 0 0 0 47 26.5C47 15.178 37.822 6 26.5 6S6 15.178 6 26.5 15.178 47 26.5 47c4.163 0 8.031-1.249 11.265-3.381l12.232 12.229a3.945 3.945 0 0 0 5.581 0l.268-.268a3.951 3.951 0 0 0 0-5.582z"/><linearGradient id="c" x1="26.5" x2="26.5" y1="12" y2="41" gradientUnits="userSpaceOnUse" spreadMethod="reflect"><stop offset="0" stop-color="#def9ff"/><stop offset=".282" stop-color="#cff6ff"/><stop offset=".823" stop-color="#a7efff"/><stop offset="1" stop-color="#99ecff"/></linearGradient><path fill="url(#c)" d="M26.5 12a14.5 14.5 0 1 0 0 29 14.5 14.5 0 1 0 0-29Z"/><linearGradient id="d" x1="22.5" x2="22.5" y1="35" y2="12" gradientUnits="userSpaceOnUse" spreadMethod="reflect"><stop offset="0" stop-color="#ddf9ff"/><stop offset=".723" stop-color="#eafcff"/><stop offset="1" stop-color="#f1fdff"/></linearGradient><path fill="url(#d)" d="M26.5 12a2.5 2.5 0 1 1 0 5H23a2 2 0 1 0 0 4h.5a2.5 2.5 0 1 1 0 5H19a2 2 0 1 0 0 4h.5a2.5 2.5 0 1 1 0 5h-4.73A14.416 14.416 0 0 1 12 26.5C12 18.492 18.492 12 26.5 12zm4 9a2.5 2.5 0 1 0 0 5 2.5 2.5 0 0 0 0-5z"/></svg>